<?xml version="1.0" encoding="UTF-8"?>
<svg id="Layer_1" data-name="Layer 1" xmlns="http://www.w3.org/2000/svg" viewBox="0 0 1101.54 1298.44">
  <defs>
    <style>
      .cls-1 {
        fill: #edf1ea;
      }

      .cls-1, .cls-2, .cls-3 {
        stroke-width: 0px;
      }

      .cls-2 {
        fill: #4b3b24;
      }

      .cls-3 {
        fill: #deddd2;
      }
    </style>
  </defs>
  <path class="cls-2" d="M906.45,0c45.89,4.76,87.12,20.3,120.49,53.22,58.72,57.92,69.54,138.28,32.84,206.34-17.58,32.6-40.31,59.5-71.29,79.36-8.52,5.46-18.12,9.24-27.3,13.65-3.85,1.85-6.39,3.44-5.32,8.88,10.11,51.58,10.01,103.31,1.69,155.14-3.96,24.65-11.59,48.75-13.96,56.06-3.9,12-7.37,22.64-13.41,35.52-20.23,43.14-61.44,94.08-66.81,99.27-3.13,3.03-3.7,6.04-1.67,10.59,13.51,30.33,27,60.72,38.18,92,8.39,23.5,15.49,47.46,23.16,71.22,2.87,9.78,6.17,19.46,8.44,29.38,1.55,6.77,5.19,8.95,11.71,9.55,21.85,2.02,43.67,5.25,63.35,15.45,64.56,33.48,95.43,87.77,95,159.68-.08,13.71-1.59,27.02-4.45,39.93-1.5,6.75-8.88,38.45-32.77,72.3-26.21,37.15-58.57,57.44-77.66,67.4-39.8,20.76-78.36,16.6-98.52,15.57-80.26-4.11-160.72,4.07-241.08,2.81-123.18-1.94-184.78-2.91-263.74,2.5-46.05,3.16-96.59,3.89-167.89-.31-47.25-2.78-91.27-16.43-130.22-43.21-25.24-17.35-43.02-42.24-58.33-68.68-35.09-60.6-36.35-122.36-.59-182.07,30.43-50.82,77.06-78.25,137.64-78.64,4.78-.03,7.07-1.08,8.28-6.03,16.46-67.29,37.68-132.9,69.91-194.53,2.71-5.18,4.05-8.8-.87-14.81-38.27-46.72-70.3-97.66-87.86-155.6-18.64-61.5-22.03-124.67-7.01-187.89,1.77-7.47.17-10.56-6.74-13.23-51.19-19.83-86.44-56.76-106.84-106.6C6.3,179.52,28.68,82.2,101.78,32.75c76.28-51.6,162.94-19.98,171.5-16.69,32.86,14.69,59.89,36.37,79.71,66.66,2.42,3.7,4.88,5.88,9.7,3.11,34.06-19.56,71.5-29.58,109.36-38.33,27.9-5.12,55.94-8.42,84.39-8.05,44.84.59,88.44,8.33,131.18,21.55,16.56,5.88,33.56,10.97,47.86,21.6,5.88,4.37,8.47,2.29,12.08-2.56,11.07-14.87,23.68-28.21,38.81-39.21C822.22,14.76,862.73,2.75,906.45,0ZM554.88,80.46c-19.68-.63-39.21.28-58.68,3.36-38.32,6.06-76.23,13.61-110.56,32.72-63.54,35.37-120.41,78.09-159.65,141.39-13.47,21.73-23.9,44.43-32.07,68.27-9.16,26.73-13.77,54.53-15.7,82.73-4.06,59.2,5.33,116.31,28.27,170.93,16.89,40.22,42.55,74.96,70.45,108.19,38.52,45.88,86.24,79.5,141.32,101.48,93.66,37.4,187.56,32.04,280.29-4.71,41-16.25,76.64-41.55,107.97-72.05,68.66-66.83,108.85-147.91,115.35-244.17,4.63-68.61-7.45-134.09-40.65-195.09-30.72-56.45-76.09-99.55-128.78-133.93-59.43-38.78-126.32-57.5-197.57-59.14ZM616.32,1182.33c0,3.41-.19,6.83.03,10.23,2.21,33.29,31.6,56.9,64.52,52.37,46.45-6.4,83.25-58.58,83.5-97.6.22-34.62,3.39-68.66,13.69-101.88,17.24-55.63,51.93-95.05,107.05-115.39,5.71-2.11,7.27-4.16,5.86-10.33-12.65-55.32-31.33-108.67-52.38-161.24-6.29-15.71-6.41-15.56-18.82-4.66-38.19,33.54-80.77,59.72-128.55,77.42-47.63,17.64-96.45,28.52-147.5,27.47-73.67-1.52-141.8-22.14-204.18-61.05-21.38-13.33-42.91-26.99-58.88-47.26-4.25-5.4-7.48-2.76-9.84,1.33-4.96,8.61-9.9,17.3-14.01,26.33-20.22,44.45-33.57,91.11-44.76,138.53-1.98,8.4-.74,11.82,7.49,14.94,44.02,16.69,75.87,46.89,96.72,88.98,18.84,38.02,25.11,78.62,26.64,120.58,1.64,45.05,25.09,77.4,62.87,100.05,9.39,5.63,19.98,7.89,31.17,6.32,35.69-5.02,56.87-31.66,53.21-67.69-1.49-14.74-5.02-29.16-9.45-43.28-17.53-55.88-35.28-111.7-52.86-167.56-2.9-9.2-6.08-18.34-6.57-28.15-.42-8.35,2.86-14.2,10.38-17.87,7.57-3.71,14.38-2.24,20.63,2.81,7.67,6.19,11.19,14.86,13.83,23.98,2.29,7.92,4.66,15.82,6.74,23.79,1.61,6.18,4.37,8.41,10.91,5.47,9.07-4.07,18.62-6.95,28.39-8.99,38.01-7.93,75.55-10.99,110.79,10.45,4.27,2.6,6.82,1.37,8.17-3.36,2.96-10.39,6.09-20.73,9.08-31.11,2.14-7.45,4.94-14.56,10.18-20.43,6.8-7.61,15.26-8.57,25.57-3.03,8.56,4.6,11.87,11.83,9.03,21.48-2.8,9.54-5.37,19.3-9.57,28.25-10.35,22.03-16.49,45.31-22.89,68.63-7.15,26.03-14.44,52.12-23.7,77.44-7.64,20.9-11.98,42-12.49,64.05ZM804.4,1102.26c-.91,22.15,3.58,43.44,9.97,64.49,3.54,11.68,6.02,23.76,13.77,33.68,36.32,46.47,104.12,53.94,148.61,32.44,49.88-24.1,74.86-66.54,83.6-119.99,6.3-38.55-1.17-74.27-25.51-104.4-32.99-40.84-76.35-55.61-127.77-41.88-37.74,10.07-68.44,29.45-85.75,66.67-10.27,22.07-15.7,44.9-16.91,69ZM61.67,174.14c-.37,12.62.79,24.13,3.26,35.59,10.7,49.54,41.03,82.69,85.82,104.18,7.46,3.58,10.62,1.9,12.47-5.74,1.25-5.21,3.49-10.19,5.44-15.21,5.8-14.95,6.04-15.37-7.69-22.07-56.3-27.47-66.11-116.82-13.76-153.16,30.73-21.33,62.95-29.32,98.62-13.12,12.12,5.5,22.53,13.26,31.26,23.13,5.92,6.7,10.96,8,17.93,1.1,5.81-5.75,12.68-10.54,19.48-15.15,5.75-3.89,6.18-7.37,2.23-13.11-32.01-46.5-77.88-62.01-131.77-58.41-39.04,2.61-68.27,24.56-93.82,51.85-7.03,7.51-13.94,15.69-18.14,25.6-7.52,17.76-11.86,36.1-11.33,54.53ZM1040.17,176.56c-.2-9.45-.49-18.84-2.79-28.01-10.06-39.99-33.41-69.53-69.71-89.07-49.24-26.5-97.81-22.41-145.23,4.07-15.54,8.68-29.4,20.35-40.45,34.81-3.28,4.29-4.11,7.55,1.16,11.19,5.12,3.53,9.51,8.1,14.33,12.06,19.51,16.05,14.51,16,33.49.31,28.05-23.17,59.71-32.27,95.34-21,42.48,13.43,72.72,59.91,61.86,100.16-8.1,30.01-22.37,58.06-53.67,72.12-3.5,1.57-7.59,3.11-5.07,8.77,3.92,8.82,7.47,17.81,11.01,26.79,1.39,3.54,3.36,4.88,7.18,3.65,11.69-3.75,23.03-8.28,32.99-15.57,40.71-29.77,58.91-70.72,59.57-120.31ZM609.06,1263.84c-4.27-4.95-6.57-7.82-9.07-10.49-19.86-21.21-28-46.45-24.88-75.09,2.03-18.64,6.04-36.97,11.05-55.07,10.15-36.66,22.62-72.63,32.32-109.44,1.41-5.33-.27-6.79-4.03-7.93-15.27-4.63-30.53-9.27-46.56-10.81-27.42-2.64-54.35,1.02-81.28,5.43-6.1,1-4.52,4.41-3.29,8.08,15.93,47.69,29.99,95.93,43.21,144.43,4.64,17.03,8.62,34.35,4.43,52.1-5.41,22.92-16.81,42.29-35.56,58.15,37.15-5.98,74.21-2.01,113.67.66ZM948.07,192.59c-.07-24.07-11.98-44.3-31.83-51.81-24.06-9.1-46.37-5.05-65.87,11.78-8.18,7.06-7.62,9.55,1.11,15.94,2.05,1.5,3.98,3.19,5.79,4.98,17.26,17.02,31.98,35.96,43.59,57.3,7.96,14.65,10.85,15.22,23.18,5.23.88-.71,1.85-1.32,2.72-2.05,12.8-10.87,21.28-23.96,21.31-41.37ZM209.57,135.56c-6.63-.24-13.87,1.36-20.91,3.53-22.37,6.88-36.82,28.75-35.36,51.97,1.41,22.39,14.79,37.36,30.24,51.32,2.9,2.62,4.38,1.04,6.06-1.27,19.4-26.65,39.36-52.85,61.88-77,4.54-4.87,3.8-9.47-1.23-13.95-11.4-10.15-24.77-14.58-40.69-14.6ZM744.35,1259.77c30,0,59.99,0,89.99,0,2.25,0,4.86.55,5.99-2,1.09-2.46-.83-4.31-2.27-6-13.25-15.47-26.53-30.92-34.94-49.8-.11-.26-.29-.49-.46-.72-4.64-6.33-7.92-6.42-12.36-.16-4.26,6.01-8.27,12.2-12.56,18.19-10.06,14.04-21.77,26.67-33.39,40.48Z"/>
  <path class="cls-1" d="M554.88,80.46c71.26,1.64,138.15,20.36,197.57,59.14,52.69,34.38,98.06,77.48,128.78,133.93,33.2,60.99,45.28,126.47,40.65,195.09-6.5,96.27-46.69,177.34-115.35,244.17-31.33,30.5-66.98,55.8-107.97,72.05-92.73,36.75-186.63,42.11-280.29,4.71-55.07-21.99-102.79-55.61-141.32-101.48-27.9-33.23-53.56-67.98-70.45-108.19-22.94-54.62-32.33-111.73-28.27-170.93,1.93-28.2,6.54-56,15.7-82.73,8.17-23.84,18.59-46.54,32.07-68.27,39.24-63.3,96.11-106.01,159.65-141.39,34.33-19.11,72.25-26.66,110.56-32.72,19.47-3.08,39-3.99,58.68-3.36ZM531.83,534.07c0,9.67-.22,19.34.09,29,.18,5.59-1.79,6.76-7.08,5.68-24.16-4.96-43.85-16.74-58.03-37.17-3.1-4.46-6.32-8.83-10.68-12.09-10.53-7.89-23.55-2.54-25.97,10.39-1.87,10.01,2.92,17.66,8.47,25.01,25.51,33.81,60.5,50.05,101.82,52.98,49.78,3.53,92.33-12.18,125.58-50.45,5.35-6.16,9.15-13.05,10.34-21.15,1.36-9.26-2.5-16.01-10.58-19.17-9.47-3.7-17.06-.85-24.6,11.1-14.32,22.69-35.59,34.26-60.83,40.32-5.82,1.4-7.65.06-7.58-5.87.22-18.77.26-37.54-.04-56.3-.08-5.22,1.76-7.63,6.64-9.07,10.48-3.11,19.89-8.3,27.89-15.89,17.15-16.26,16.75-38.62-.58-54.52-23.02-21.12-78.5-25.42-104.47-.78-18.47,17.53-18.96,42.15.39,58.51,6.61,5.58,13.97,9.87,22.25,12.26,5.29,1.53,7.23,4.5,7.05,9.91-.31,9.09-.08,18.2-.09,27.3ZM783.84,481.53c-36.62-3.01-56.31,36.53-43.04,63.69,13.78,28.2,56.05,38.62,80.24,17.37,22.4-19.68,29.67-46.78,3.33-68.13-11.5-9.33-25.39-13.73-40.53-12.93ZM364.07,526.81c-.36-4.67.8-9.09-1.25-13.06-12.4-24.09-43.05-39.83-68.78-27.87-9.46,4.4-16.53,11.88-22.68,20.16-13.22,17.81-13.25,28.88-.94,47.16,8.42,12.49,20.86,17.27,34.87,20.18,29.31,6.1,62.56-23.76,58.77-46.58ZM750.03,373.92c-25.05-.43-45.75,18.71-46.08,42.6-.34,24.44,20.23,44.61,45.97,45.1,25.04.47,45.77-18.7,46.07-42.6.31-24.45-20.29-44.66-45.96-45.09ZM351.12,462.48c25.05-.36,45.08-19.51,44.79-42.84-.31-24.99-21.37-44.66-47.48-44.34-24.64.3-44.52,19.19-44.45,42.24.08,24.69,21.7,45.31,47.13,44.95Z"/>
  <path class="cls-1" d="M616.32,1182.33c.51-22.05,4.85-43.15,12.49-64.05,9.26-25.32,16.55-51.41,23.7-77.44,6.41-23.32,12.55-46.6,22.89-68.63,4.2-8.95,6.76-18.71,9.57-28.25,2.84-9.64-.47-16.88-9.03-21.48-10.31-5.53-18.78-4.58-25.57,3.03-5.24,5.87-8.04,12.98-10.18,20.43-3.53,12.28-3.29,16.13-7.89,28.15-1.61,4.21-2.41,6.31-2.95,7-9.56,12.36-39.61-9.38-80-9-36.28.34-66.02,18.38-74,7-.5-.71-1.17-2.34-2.51-5.61-4.4-10.71-4.28-15.31-6.74-23.79-2.64-9.12-6.16-17.79-13.83-23.98-6.25-5.05-13.06-6.52-20.63-2.81-7.51,3.68-10.79,9.53-10.38,17.87.49,9.81,3.68,18.95,6.57,28.15,17.59,55.87,35.33,111.68,52.86,167.56,4.43,14.12,7.96,28.54,9.45,43.28,3.65,36.03-17.52,62.67-53.21,67.69-11.19,1.57-21.78-.69-31.17-6.32-37.78-22.66-61.22-55-62.87-100.05-1.53-41.96-7.81-82.56-26.64-120.58-20.85-42.09-52.7-72.29-96.72-88.98-8.24-3.12-9.48-6.54-7.49-14.94,11.19-47.41,24.54-94.08,44.76-138.53,4.11-9.04,9.05-17.72,14.01-26.33,2.35-4.09,5.59-6.72,9.84-1.33,15.97,20.27,37.5,33.92,58.88,47.26,62.38,38.91,130.51,59.52,204.18,61.05,51.06,1.06,99.88-9.82,147.5-27.47,47.78-17.7,90.36-43.88,128.55-77.42,12.41-10.9,12.53-11.05,18.82,4.66,21.05,52.57,39.73,105.91,52.38,161.24,1.41,6.17-.15,8.22-5.86,10.33-55.11,20.34-89.8,59.76-107.05,115.39-10.3,33.22-13.47,67.26-13.69,101.88-.25,39.03-37.05,91.21-83.5,97.6-32.92,4.53-62.31-19.07-64.52-52.37-.22-3.39-.03-6.82-.03-10.23Z"/>
  <path class="cls-1" d="M804.4,1102.25c1.21-24.08,6.64-46.91,16.91-68.99,17.32-37.21,48.01-56.59,85.75-66.67,51.42-13.73,94.78,1.04,127.77,41.88,24.33,30.13,31.81,65.85,25.51,104.4-8.74,53.45-33.72,95.89-83.6,119.99-44.49,21.5-112.28,14.03-148.61-32.44-7.75-9.92-10.23-22-13.77-33.68-6.39-21.05-10.88-42.34-9.97-64.5Z"/>
  <path class="cls-1" d="M296.93,1114.24c-1.8,26.33-4.46,66.4-36.58,96.87-29.19,27.68-70.78,36.86-105.18,29.25-15.02-3.32-25.58-9.13-33.03-13.36-39.95-22.68-58.88-59.17-65.43-74.05-6.95-15.79-34.38-78.08.14-133.22,30.16-48.18,93.84-68.93,147.36-52.74,59.9,18.12,82.47,75.06,85.14,82.13,9.98,26.44,8.65,49.42,7.58,65.13Z"/>
  <path class="cls-1" d="M61.67,174.14c-.53-18.43,3.81-36.77,11.33-54.53,4.2-9.91,11.11-18.09,18.14-25.6,25.55-27.29,54.79-49.24,93.82-51.85,53.88-3.6,99.75,11.91,131.77,58.41,3.95,5.74,3.52,9.22-2.23,13.11-6.81,4.61-13.67,9.4-19.48,15.15-6.97,6.89-12.02,5.59-17.93-1.1-8.73-9.88-19.14-17.63-31.26-23.13-35.67-16.2-67.89-8.21-98.62,13.12-52.34,36.34-42.53,125.69,13.76,153.16,13.73,6.7,13.49,7.12,7.69,22.07-1.95,5.02-4.19,10.01-5.44,15.21-1.84,7.65-5.01,9.32-12.47,5.74-44.8-21.49-75.13-54.65-85.82-104.18-2.47-11.46-3.63-22.97-3.26-35.59Z"/>
  <path class="cls-1" d="M1040.17,176.56c-.65,49.59-18.86,90.54-59.57,120.31-9.96,7.28-21.3,11.82-32.99,15.57-3.81,1.22-5.79-.12-7.18-3.65-3.53-8.99-7.09-17.97-11.01-26.79-2.52-5.67,1.57-7.2,5.07-8.77,31.3-14.07,45.57-42.12,53.67-72.12,10.86-40.25-19.38-86.73-61.86-100.16-35.63-11.27-67.3-2.17-95.34,21-18.99,15.69-13.98,15.73-33.49-.31-4.83-3.97-9.22-8.53-14.33-12.06-5.27-3.64-4.43-6.9-1.16-11.19,11.05-14.46,24.91-26.14,40.45-34.81,47.42-26.48,95.98-30.57,145.23-4.07,36.31,19.54,59.65,49.08,69.71,89.07,2.31,9.16,2.59,18.55,2.79,28.01Z"/>
  <path class="cls-1" d="M609.06,1263.84c-39.46-2.66-76.52-6.64-113.67-.66,18.76-15.86,30.15-35.23,35.56-58.15,4.19-17.75.21-35.08-4.43-52.1-13.22-48.49-27.28-96.74-43.21-144.43-1.22-3.67-2.81-7.08,3.29-8.08,26.93-4.41,53.86-8.07,81.28-5.43,16.03,1.54,31.29,6.18,46.56,10.81,3.76,1.14,5.44,2.6,4.03,7.93-9.7,36.8-22.17,72.78-32.32,109.44-5.01,18.1-9.02,36.44-11.05,55.07-3.12,28.64,5.03,53.88,24.88,75.09,2.5,2.67,4.8,5.54,9.07,10.49Z"/>
  <path class="cls-3" d="M948.07,192.59c-.03,17.41-8.51,30.5-21.31,41.37-.86.73-1.84,1.33-2.72,2.05-12.34,9.99-15.22,9.42-23.18-5.23-11.6-21.34-26.33-40.29-43.59-57.3-1.81-1.78-3.75-3.48-5.79-4.98-8.74-6.4-9.3-8.88-1.11-15.94,19.5-16.83,41.81-20.89,65.87-11.78,19.85,7.51,31.77,27.75,31.83,51.81Z"/>
  <path class="cls-3" d="M209.57,135.56c15.91.02,29.28,4.45,40.69,14.6,5.03,4.48,5.77,9.08,1.23,13.95-22.52,24.15-42.48,50.35-61.88,77-1.68,2.3-3.16,3.89-6.06,1.27-15.45-13.96-28.83-28.93-30.24-51.32-1.46-23.22,12.99-45.09,35.36-51.97,7.04-2.17,14.28-3.78,20.91-3.53Z"/>
  <path class="cls-1" d="M362.16,1259.69c-29.01.24-57.39-.42-85.69,1.87-6.78.55-13.54,1.48-20.3,2.26-1.64.19-3.6,1.08-4.65-.72-1.27-2.19.64-3.63,1.94-5.06.57-.63,1.2-1.24,1.92-1.68,23.28-14.36,39.6-35.47,55.14-57.23,4.54-6.36,6.21-5.31,8.76,1.22,4.53,11.6,12.42,24.14,16.81,30.39,1.92,2.73,6.37,7.61,15.27,17.37,4.42,4.85,8.17,8.82,10.81,11.58Z"/>
  <path class="cls-1" d="M744.35,1259.77c11.62-13.82,23.33-26.44,33.39-40.48,4.29-5.99,8.3-12.18,12.56-18.19,4.44-6.26,7.72-6.17,12.36.16.17.23.34.46.46.72,8.41,18.87,21.69,34.32,34.94,49.8,1.44,1.69,3.36,3.54,2.27,6-1.13,2.55-3.74,2-5.99,2-30,0-59.99,0-89.99,0Z"/>
  <path class="cls-2" d="M531.83,534.07c0-9.1-.22-18.21.09-27.3.18-5.41-1.76-8.38-7.05-9.91-8.28-2.39-15.64-6.68-22.25-12.26-19.35-16.35-18.86-40.98-.39-58.51,25.97-24.65,81.45-20.34,104.47.78,17.33,15.9,17.73,38.25.58,54.52-8,7.59-17.42,12.78-27.89,15.89-4.88,1.45-6.72,3.86-6.64,9.07.3,18.76.26,37.54.04,56.3-.07,5.93,1.77,7.27,7.58,5.87,25.25-6.06,46.51-17.63,60.83-40.32,7.54-11.95,15.13-14.8,24.6-11.1,8.08,3.15,11.94,9.9,10.58,19.17-1.19,8.09-4.98,14.99-10.34,21.15-33.26,38.27-75.8,53.98-125.58,50.45-41.32-2.93-76.31-19.17-101.82-52.98-5.55-7.35-10.34-15-8.47-25.01,2.42-12.94,15.44-18.28,25.97-10.39,4.36,3.27,7.58,7.63,10.68,12.09,14.17,20.43,33.86,32.21,58.03,37.17,5.29,1.09,7.26-.09,7.08-5.68-.31-9.66-.09-19.33-.08-29Z"/>
  <path class="cls-3" d="M783.84,481.53c15.14-.81,29.02,3.59,40.53,12.92,26.34,21.36,19.08,48.45-3.33,68.13-24.19,21.25-66.47,10.83-80.24-17.37-13.27-27.16,6.42-66.7,43.04-63.68Z"/>
  <path class="cls-3" d="M364.07,526.81c3.8,22.82-29.46,52.68-58.77,46.58-14.01-2.91-26.45-7.69-34.87-20.18-12.32-18.28-12.28-29.35.94-47.16,6.14-8.28,13.21-15.76,22.68-20.16,25.72-11.96,56.37,3.78,68.78,27.87,2.04,3.97.89,8.39,1.25,13.06Z"/>
  <path class="cls-2" d="M750.03,373.92c25.67.44,46.27,20.65,45.96,45.09-.3,23.9-21.03,43.07-46.07,42.6-25.74-.48-46.31-20.66-45.97-45.1.33-23.89,21.04-43.03,46.08-42.6Z"/>
  <path class="cls-2" d="M351.12,462.48c-25.43.36-47.05-20.26-47.13-44.95-.07-23.05,19.8-41.94,44.45-42.24,26.11-.32,47.16,19.35,47.48,44.34.29,23.33-19.74,42.49-44.79,42.84Z"/>
  <path class="cls-3" d="M1024.29,1101.71c.53,8.98,2.14,55.97-35.59,85.56-25.95,20.36-66.66,29.46-99.53,10.56-42.27-24.3-41.97-77.84-41.9-90.44.05-9.44.45-31.32,14.3-53.78,4.35-7.05,21.99-34.66,57.24-42.23,6.2-1.33,29.82-5.67,54.57,6.3,46.35,22.43,50.66,79.82,50.91,84.03Z"/>
  <path class="cls-3" d="M229.05,1179.38c-4.51,4.44-19.53,18.83-43.02,22.29-34.48,5.08-60.75-17.29-68.32-23.75-39.48-33.63-37.3-84.52-36.97-90.15.64-10.74,1.99-33.49,18.68-54.01,19.86-24.41,54.54-37.21,86.85-29.17,36.15,8.99,52.81,39.95,57.45,48.58,21.7,40.32,16.56,95.46-14.67,126.2Z"/>
</svg>